<?xml version="1.0" standalone="no"?><!DOCTYPE svg PUBLIC "-//W3C//DTD SVG 1.1//EN" "http://www.w3.org/Graphics/SVG/1.1/DTD/svg11.dtd"><svg viewBox="0 0 286 101" preserveAspectRatio="xMidYMid meet" id="dhfdhcfc" version="1.1" xmlns="http://www.w3.org/2000/svg" xmlns:xlink="http://www.w3.org/1999/xlink" style="display:block;height:211.875px;max-height:70%;max-width:600px;min-height:auto;min-width:auto;width:600px;perspective-origin:300px 105.938px;transform-origin:300px 105.938px;"><defs id="SvgjsDefs1001" style="height:auto;overflow-x:visible;overflow-y:visible;width:auto;perspective-origin:0px 0px;transform-origin:0px 0px;"/><g id="SvgjsG1007" featurekey="root" fill="#424242" style="height:auto;overflow-x:visible;overflow-y:visible;width:auto;perspective-origin:0px 0px;transform-origin:0px 0px;fill:rgb(66, 66, 66);"/><g id="SvgjsG1008" featurekey="symbol1" fill="#09f0dd" transform="matrix(0.8077544974066682,0,0,0.8077544974066682,17,10.246365127486545)" style="height:auto;overflow-x:visible;overflow-y:visible;width:auto;perspective-origin:0px 0px;transform:matrix(0.807755, 0, 0, 0.807755, 17, 10.2464);transform-origin:0px 0px;fill:rgb(9, 240, 221);"><g id="SvgjsG1009" style="height:auto;overflow-x:visible;overflow-y:visible;width:auto;perspective-origin:0px 0px;transform-origin:0px 0px;fill:rgb(9, 240, 221);"><g xmlns="http://www.w3.org/2000/svg" style="height:auto;overflow-x:visible;overflow-y:visible;width:auto;perspective-origin:0px 0px;transform-origin:0px 0px;fill:rgb(9, 240, 221);"><path d="M56.072,26.527c0-0.795-0.625-1.628-1.389-1.85L13.319,12.686c-0.765-0.221-0.872-0.797-0.239-1.279l3.665-2.79   c0.633-0.481,1.777-0.694,2.54-0.472l41.29,11.991c0.764,0.222,1.389,1.055,1.389,1.85V86.99c0,0-0.492,0.427-1.092,0.95   l-3.707,3.219c-0.6,0.523-1.092,0.299-1.092-0.497V26.527z" style="height:auto;overflow-x:visible;overflow-y:visible;width:auto;perspective-origin:0px 0px;transform-origin:0px 0px;fill:rgb(9, 240, 221);d:path(&quot;M 56.072 26.527 C 56.072 25.732 55.447 24.899 54.683 24.677 L 13.319 12.686 C 12.554 12.465 12.447 11.889 13.08 11.407 L 16.745 8.617 C 17.378 8.136 18.522 7.923 19.285 8.145 L 60.575 20.136 C 61.339 20.358 61.964 21.191 61.964 21.986 V 86.99 C 61.964 86.99 61.472 87.417 60.872 87.94 L 57.165 91.159 C 56.565 91.682 56.073 91.458 56.073 90.662 V 26.527 Z&quot;);"/><path d="M67.969,14.562L17.283-0.147c-0.568-0.158-0.568-0.158-0.568-0.158c-0.592,0.257-1.593,0.861-2.226,1.343L0.66,11.565   C0,12.062,0,12.197,0,12.197c0,0.795,0,2.098,0,2.894v68.306c0,0.796,0.626,1.628,1.391,1.85L51.066,99.64   c0.764,0.222,1.391-0.248,1.391-1.044V29.244c0-0.796-0.627-1.628-1.391-1.849l-3.237-0.938v23.475l-7.397-10.563l-6.217,6.347   V22.509l-28.802-8.35c-0.764-0.221-0.871-0.796-0.238-1.278l10.829-8.244c0.633-0.482,1.777-0.694,2.54-0.473L64.191,17.42   c0.764,0.222,1.389,1.055,1.389,1.85v69.37c0,0.795,0.65,1.446,1.447,1.446h0.854c0.797,0,1.447-0.651,1.447-1.446V16.393   C69.328,15.541,68.771,14.796,67.969,14.562z" style="height:auto;overflow-x:visible;overflow-y:visible;width:auto;perspective-origin:0px 0px;transform-origin:0px 0px;fill:rgb(9, 240, 221);d:path(&quot;M 67.969 14.562 L 17.283 -0.147 C 16.715 -0.305 16.715 -0.305 16.715 -0.305 C 16.123 -0.048 15.122 0.556 14.489 1.038 L 0.66 11.565 C 0 12.062 0 12.197 0 12.197 C 0 12.992 0 14.295 0 15.091 V 83.397 C 0 84.193 0.626 85.025 1.391 85.247 L 51.066 99.64 C 51.83 99.862 52.457 99.392 52.457 98.596 V 29.244 C 52.457 28.448 51.83 27.616 51.066 27.395 L 47.829 26.457 V 49.932 L 40.432 39.369 L 34.215 45.716 V 22.509 L 5.413 14.159 C 4.649 13.938 4.542 13.363 5.175 12.881 L 16.004 4.637 C 16.637 4.155 17.781 3.943 18.544 4.164 L 64.191 17.42 C 64.955 17.642 65.58 18.475 65.58 19.27 V 88.64 C 65.58 89.435 66.23 90.086 67.027 90.086 H 67.881 C 68.678 90.086 69.328 89.435 69.328 88.64 V 16.393 C 69.328 15.541 68.771 14.796 67.969 14.562 Z&quot;);"/><polygon points="37.109,38.58 40.801,34.809 44.937,40.712 44.937,25.467 37.109,23.195  " style="height:auto;overflow-x:visible;overflow-y:visible;width:auto;perspective-origin:0px 0px;transform-origin:0px 0px;fill:rgb(9, 240, 221);"/></g></g></g><g id="SvgjsG1010" featurekey="text1" fill="#ffffff" transform="matrix(2.6158683836369345,0,0,2.6158683836369345,83.80267047043095,17.29285026846722)" style="height:auto;overflow-x:visible;overflow-y:visible;width:auto;perspective-origin:0px 0px;transform:matrix(2.61587, 0, 0, 2.61587, 83.8027, 17.2929);transform-origin:0px 0px;fill:rgb(255, 255, 255);"><path d="M0.84 20 l0 -14.74 l4.72 0 c0.62 0 1.28 0.08 1.94 0.24 s1.2 0.52 1.6 1.08 c0.38 0.58 0.58 1.24 0.64 2.02 s0.1 1.48 0.1 2.14 c0 1.18 -0.12 2.58 -0.98 3.46 c-0.82 0.82 -2.06 0.98 -3.16 0.98 l-1.34 0 l0 4.82 l-3.52 0 z M4.36 7.960000000000001 l0 4.52 l0.86 0 c0.34 0 0.6 -0.1 0.76 -0.3 c0.16 -0.18 0.24 -0.52 0.24 -1.06 l0 -2.08 c0 -0.44 -0.08 -0.74 -0.26 -0.88 s-0.46 -0.2 -0.84 -0.2 l-0.76 0 z M10.88 20 l0 -14.74 l3.24 0 l0 14.74 l-3.24 0 z M19.42 8.96 c1.54 0 2.9 0.26 3.48 1.6 c0.56 1.28 0.66 2.86 0.66 4.2 c0 0.64 -0.02 1.36 -0.08 2.14 c-0.04 0.78 -0.24 1.46 -0.58 2.06 c-0.32 0.56 -0.82 0.9 -1.48 1.04 c-0.66 0.12 -1.32 0.18 -2 0.18 s-1.34 -0.06 -2 -0.18 c-0.66 -0.14 -1.14 -0.48 -1.46 -1.04 c-0.34 -0.6 -0.54 -1.28 -0.6 -2.06 c-0.04 -0.78 -0.06 -1.5 -0.06 -2.14 c0 -1.34 0.1 -2.92 0.66 -4.2 c0.56 -1.34 1.92 -1.6 3.46 -1.6 z M19.42 17.88 c0.42 0 0.68 -0.14 0.74 -0.4 c0.06 -0.28 0.1 -0.56 0.1 -0.84 c0 -0.86 0 -1.6 0.02 -2.18 c0.02 -0.6 0 -1.34 -0.02 -2.22 c-0.02 -0.64 -0.3 -0.96 -0.84 -0.96 s-0.8 0.32 -0.82 0.96 c-0.04 0.88 -0.06 1.62 -0.04 2.22 c0.02 0.58 0.04 1.32 0.04 2.18 c0 0.28 0.02 0.56 0.08 0.84 c0.06 0.26 0.32 0.4 0.74 0.4 z M25.06 9.16 l0 -2.76 l3.24 0 l0 2.76 l1.46 0 l0 2.34 l-1.46 0 l0 5.44 c0 0.32 0.06 0.54 0.18 0.66 c0.12 0.14 0.32 0.22 0.62 0.22 c0.18 0 0.38 -0.02 0.56 -0.06 l0 2.36 c-0.36 0 -0.66 0 -0.88 0.02 c-0.24 0.02 -0.56 0.04 -0.96 0.04 c-0.7 0 -1.52 -0.04 -2.08 -0.44 c-0.56 -0.42 -0.68 -1.18 -0.68 -1.84 l0 -6.4 l-0.92 0 l0 -2.34 l0.92 0 z M30.74 20 l0 -14.74 l4.72 0 c0.62 0 1.28 0.08 1.94 0.24 s1.2 0.52 1.6 1.08 c0.38 0.58 0.58 1.24 0.64 2.02 s0.1 1.48 0.1 2.14 c0 1.18 -0.12 2.58 -0.98 3.46 c-0.82 0.82 -2.06 0.98 -3.16 0.98 l-1.34 0 l0 4.82 l-3.52 0 z M34.26 7.960000000000001 l0 4.52 l0.86 0 c0.34 0 0.6 -0.1 0.76 -0.3 c0.16 -0.18 0.24 -0.52 0.24 -1.06 l0 -2.08 c0 -0.44 -0.08 -0.74 -0.26 -0.88 s-0.46 -0.2 -0.84 -0.2 l-0.76 0 z M44.64 8.96 c1.54 0 2.9 0.26 3.48 1.6 c0.56 1.28 0.66 2.86 0.66 4.2 c0 0.64 -0.02 1.36 -0.08 2.14 c-0.04 0.78 -0.24 1.46 -0.58 2.06 c-0.32 0.56 -0.82 0.9 -1.48 1.04 c-0.66 0.12 -1.32 0.18 -2 0.18 s-1.34 -0.06 -2 -0.18 c-0.66 -0.14 -1.14 -0.48 -1.46 -1.04 c-0.34 -0.6 -0.54 -1.28 -0.6 -2.06 c-0.04 -0.78 -0.06 -1.5 -0.06 -2.14 c0 -1.34 0.1 -2.92 0.66 -4.2 c0.56 -1.34 1.92 -1.6 3.46 -1.6 z M44.64 17.88 c0.42 0 0.68 -0.14 0.74 -0.4 c0.06 -0.28 0.1 -0.56 0.1 -0.84 c0 -0.86 0 -1.6 0.02 -2.18 c0.02 -0.6 0 -1.34 -0.02 -2.22 c-0.02 -0.64 -0.3 -0.96 -0.84 -0.96 s-0.8 0.32 -0.82 0.96 c-0.04 0.88 -0.06 1.62 -0.04 2.22 c0.02 0.58 0.04 1.32 0.04 2.18 c0 0.28 0.02 0.56 0.08 0.84 c0.06 0.26 0.32 0.4 0.74 0.4 z M49.96 7.68 l0 -2.44 l3.24 0 l0 2.44 l-3.24 0 z M49.96 20 l0 -10.84 l3.24 0 l0 10.84 l-3.24 0 z M59.400000000000006 20 l0 -7.56 c0 -0.26 -0.06 -0.46 -0.16 -0.64 c-0.1 -0.16 -0.3 -0.24 -0.6 -0.24 s-0.5 0.08 -0.6 0.26 c-0.1 0.2 -0.16 0.4 -0.16 0.62 l0 7.56 l-3.24 0 l0 -10.84 l2.88 0 l0.32 1.24 l0.04 0 c0.26 -0.52 0.58 -0.88 0.94 -1.1 c0.38 -0.22 0.86 -0.34 1.4 -0.34 c0.74 0 1.34 0.2 1.78 0.62 c0.42 0.42 0.64 1.06 0.64 1.88 l0 8.54 l-3.24 0 z M64.36 9.16 l0 -2.76 l3.24 0 l0 2.76 l1.46 0 l0 2.34 l-1.46 0 l0 5.44 c0 0.32 0.06 0.54 0.18 0.66 c0.12 0.14 0.32 0.22 0.62 0.22 c0.18 0 0.38 -0.02 0.56 -0.06 l0 2.36 c-0.36 0 -0.66 0 -0.88 0.02 c-0.24 0.02 -0.56 0.04 -0.96 0.04 c-0.7 0 -1.52 -0.04 -2.08 -0.44 c-0.56 -0.42 -0.68 -1.18 -0.68 -1.84 l0 -6.4 l-0.92 0 l0 -2.34 l0.92 0 z M72.74000000000001 12.1 c0 0.48 0.56 0.78 1.02 0.94 l1.7 0.64 c0.4 0.16 0.76 0.36 1.06 0.6 c0.64 0.56 0.7 1.4 0.7 2.14 l0 0.42 c-0.02 0.96 -0.2 2 -0.98 2.64 s-1.88 0.7 -2.82 0.7 c-1.04 0 -2.32 -0.06 -3.06 -0.7 c-0.66 -0.56 -0.74 -1.4 -0.74 -2.14 l0 -0.74 l2.92 0 l0 0.3 c0 0.34 0.04 0.6 0.12 0.76 c0.1 0.2 0.32 0.3 0.66 0.3 c0.18 0 0.34 -0.04 0.46 -0.14 c0.26 -0.22 0.24 -0.58 0.24 -0.9 c0 -0.48 -0.58 -0.78 -1 -0.94 l-1.62 -0.62 c-0.42 -0.14 -0.78 -0.34 -1.04 -0.58 c-0.64 -0.54 -0.68 -1.34 -0.68 -2.06 l0 -0.44 c0 -0.88 0.1 -1.98 0.84 -2.62 s1.94 -0.7 2.9 -0.7 c0.54 0 1.12 0.06 1.74 0.18 s1.08 0.4 1.4 0.86 c0.22 0.34 0.36 0.72 0.38 1.1 l0.04 1.26 l-2.82 0 l0 -0.22 c0 -0.34 -0.04 -0.6 -0.12 -0.76 c-0.14 -0.2 -0.36 -0.3 -0.68 -0.3 c-0.18 0 -0.3 0.04 -0.4 0.14 c-0.26 0.24 -0.22 0.58 -0.22 0.88 z" style="height:auto;overflow-x:visible;overflow-y:visible;width:auto;perspective-origin:0px 0px;transform-origin:0px 0px;fill:rgb(255, 255, 255);d:path(&quot;M 0.84 20 L 0.84 5.26 L 5.56 5.26 C 6.18 5.26 6.84 5.34 7.5 5.5 S 8.7 6.02 9.1 6.58 C 9.48 7.16 9.68 7.82 9.74 8.6 S 9.84 10.08 9.84 10.74 C 9.84 11.92 9.72 13.32 8.86 14.2 C 8.04 15.02 6.8 15.18 5.7 15.18 L 4.36 15.18 L 4.36 20 L 0.840001 20 Z M 4.36 7.96 L 4.36 12.48 L 5.22 12.48 C 5.56 12.48 5.82 12.38 5.98 12.18 C 6.14 12 6.22 11.66 6.22 11.12 L 6.22 9.04 C 6.22 8.6 6.14 8.3 5.96 8.16 S 5.5 7.96 5.12 7.96 L 4.36 7.96 Z M 10.88 20 L 10.88 5.26 L 14.12 5.26 L 14.12 20 L 10.88 20 Z M 19.42 8.96 C 20.96 8.96 22.32 9.22 22.9 10.56 C 23.46 11.84 23.56 13.42 23.56 14.76 C 23.56 15.4 23.54 16.12 23.48 16.9 C 23.44 17.68 23.24 18.36 22.9 18.96 C 22.58 19.52 22.08 19.86 21.42 20 C 20.76 20.12 20.1 20.18 19.42 20.18 S 18.08 20.12 17.42 20 C 16.76 19.86 16.28 19.52 15.96 18.96 C 15.62 18.36 15.42 17.68 15.36 16.9 C 15.32 16.12 15.3 15.4 15.3 14.76 C 15.3 13.42 15.4 11.84 15.96 10.56 C 16.52 9.22 17.88 8.96 19.42 8.96 Z M 19.42 17.88 C 19.84 17.88 20.1 17.74 20.16 17.48 C 20.22 17.2 20.26 16.92 20.26 16.64 C 20.26 15.78 20.26 15.04 20.28 14.46 C 20.3 13.86 20.28 13.12 20.26 12.24 C 20.24 11.6 19.96 11.28 19.42 11.28 S 18.62 11.6 18.6 12.24 C 18.56 13.12 18.54 13.86 18.56 14.46 C 18.58 15.04 18.6 15.78 18.6 16.64 C 18.6 16.92 18.62 17.2 18.68 17.48 C 18.74 17.74 19 17.88 19.42 17.88 Z M 25.06 9.16 L 25.06 6.4 L 28.3 6.4 L 28.3 9.16 L 29.76 9.16 L 29.76 11.5 L 28.3 11.5 L 28.3 16.94 C 28.3 17.26 28.36 17.48 28.48 17.6 C 28.6 17.74 28.8 17.82 29.1 17.82 C 29.28 17.82 29.48 17.8 29.66 17.76 L 29.66 20.12 C 29.3 20.12 29 20.12 28.78 20.14 C 28.54 20.16 28.22 20.18 27.82 20.18 C 27.12 20.18 26.3 20.14 25.74 19.74 C 25.18 19.32 25.06 18.56 25.06 17.9 L 25.06 11.5 L 24.14 11.5 L 24.14 9.16 L 25.06 9.16 Z M 30.74 20 L 30.74 5.26 L 35.46 5.26 C 36.08 5.26 36.74 5.34 37.4 5.5 S 38.6 6.02 39 6.58 C 39.38 7.16 39.58 7.82 39.64 8.6 S 39.74 10.08 39.74 10.74 C 39.74 11.92 39.62 13.32 38.76 14.2 C 37.94 15.02 36.7 15.18 35.6 15.18 L 34.26 15.18 L 34.26 20 L 30.74 20 Z M 34.26 7.96 L 34.26 12.48 L 35.12 12.48 C 35.46 12.48 35.72 12.38 35.88 12.18 C 36.04 12 36.12 11.66 36.12 11.12 L 36.12 9.04 C 36.12 8.6 36.04 8.3 35.86 8.16 S 35.4 7.96 35.02 7.96 L 34.26 7.96 Z M 44.64 8.96 C 46.18 8.96 47.54 9.22 48.12 10.56 C 48.68 11.84 48.78 13.42 48.78 14.76 C 48.78 15.4 48.76 16.12 48.7 16.9 C 48.66 17.68 48.46 18.36 48.12 18.96 C 47.8 19.52 47.3 19.86 46.64 20 C 45.98 20.12 45.32 20.18 44.64 20.18 S 43.3 20.12 42.64 20 C 41.98 19.86 41.5 19.52 41.18 18.96 C 40.84 18.36 40.64 17.68 40.58 16.9 C 40.54 16.12 40.52 15.4 40.52 14.76 C 40.52 13.42 40.62 11.84 41.18 10.56 C 41.74 9.22 43.1 8.96 44.64 8.96 Z M 44.64 17.88 C 45.06 17.88 45.32 17.74 45.38 17.48 C 45.44 17.2 45.48 16.92 45.48 16.64 C 45.48 15.78 45.48 15.04 45.5 14.46 C 45.52 13.86 45.5 13.12 45.48 12.24 C 45.46 11.6 45.18 11.28 44.64 11.28 S 43.84 11.6 43.82 12.24 C 43.78 13.12 43.76 13.86 43.78 14.46 C 43.8 15.04 43.82 15.78 43.82 16.64 C 43.82 16.92 43.84 17.2 43.9 17.48 C 43.96 17.74 44.22 17.88 44.64 17.88 Z M 49.96 7.68 L 49.96 5.24 L 53.2 5.24 L 53.2 7.68 L 49.96 7.68 Z M 49.96 20 L 49.96 9.16 L 53.2 9.16 L 53.2 20 L 49.96 20 Z M 59.4 20 L 59.4 12.44 C 59.4 12.18 59.34 11.98 59.24 11.8 C 59.14 11.64 58.94 11.56 58.64 11.56 S 58.14 11.64 58.04 11.82 C 57.94 12.02 57.88 12.22 57.88 12.44 L 57.88 20 L 54.64 20 L 54.64 9.16 L 57.52 9.16 L 57.84 10.4 L 57.88 10.4 C 58.14 9.88 58.46 9.52 58.82 9.3 C 59.2 9.08 59.68 8.96 60.22 8.96 C 60.96 8.96 61.56 9.16 62 9.58 C 62.42 10 62.64 10.64 62.64 11.46 L 62.64 20 L 59.4 20 Z M 64.36 9.16 L 64.36 6.4 L 67.6 6.4 L 67.6 9.16 L 69.06 9.16 L 69.06 11.5 L 67.6 11.5 L 67.6 16.94 C 67.6 17.26 67.66 17.48 67.78 17.6 C 67.9 17.74 68.1 17.82 68.4 17.82 C 68.58 17.82 68.78 17.8 68.96 17.76 L 68.96 20.12 C 68.6 20.12 68.3 20.12 68.08 20.14 C 67.84 20.16 67.52 20.18 67.12 20.18 C 66.42 20.18 65.6 20.14 65.04 19.74 C 64.48 19.32 64.36 18.56 64.36 17.9 L 64.36 11.5 L 63.44 11.5 L 63.44 9.16 L 64.36 9.16 Z M 72.74 12.1 C 72.74 12.58 73.3 12.88 73.76 13.04 L 75.46 13.68 C 75.86 13.84 76.22 14.04 76.52 14.28 C 77.16 14.84 77.22 15.68 77.22 16.42 L 77.22 16.84 C 77.2 17.8 77.02 18.84 76.24 19.48 S 74.36 20.18 73.42 20.18 C 72.38 20.18 71.1 20.12 70.36 19.48 C 69.7 18.92 69.62 18.08 69.62 17.34 L 69.62 16.6 L 72.54 16.6 L 72.54 16.9 C 72.54 17.24 72.58 17.5 72.66 17.66 C 72.76 17.86 72.98 17.96 73.32 17.96 C 73.5 17.96 73.66 17.92 73.78 17.82 C 74.04 17.6 74.02 17.24 74.02 16.92 C 74.02 16.44 73.44 16.14 73.02 15.98 L 71.4 15.36 C 70.98 15.22 70.62 15.02 70.36 14.78 C 69.72 14.24 69.68 13.44 69.68 12.72 L 69.68 12.28 C 69.68 11.4 69.78 10.3 70.52 9.66 S 72.46 8.96 73.42 8.96 C 73.96 8.96 74.54 9.02 75.16 9.14 S 76.24 9.54 76.56 10 C 76.78 10.34 76.92 10.72 76.94 11.1 L 76.98 12.36 L 74.16 12.36 L 74.16 12.14 C 74.16 11.8 74.12 11.54 74.04 11.38 C 73.9 11.18 73.68 11.08 73.36 11.08 C 73.18 11.08 73.06 11.12 72.96 11.22 C 72.7 11.46 72.74 11.8 72.74 12.1 Z&quot;);"/></g></svg>