<?xml version="1.0" encoding="UTF-8" standalone="no"?>
<!-- Created with Inkscape (http://www.inkscape.org/) -->

<svg
   xmlns:dc="http://purl.org/dc/elements/1.1/"
   xmlns:cc="http://creativecommons.org/ns#"
   xmlns:rdf="http://www.w3.org/1999/02/22-rdf-syntax-ns#"
   xmlns:svg="http://www.w3.org/2000/svg"
   xmlns="http://www.w3.org/2000/svg"
   xmlns:sodipodi="http://sodipodi.sourceforge.net/DTD/sodipodi-0.dtd"
   xmlns:inkscape="http://www.inkscape.org/namespaces/inkscape"
   width="210mm"
   height="297mm"
   viewBox="0 0 210 297"
   version="1.1"
   id="svg3766"
   inkscape:version="0.92.3 (2405546, 2018-03-11)"
   sodipodi:docname="newLogo.svg">
  <defs
     id="defs3760" />
  <sodipodi:namedview
     id="base"
     pagecolor="#ffffff"
     bordercolor="#666666"
     borderopacity="1.0"
     inkscape:pageopacity="0.0"
     inkscape:pageshadow="2"
     inkscape:zoom="0.35"
     inkscape:cx="400"
     inkscape:cy="560"
     inkscape:document-units="mm"
     inkscape:current-layer="layer1"
     showgrid="false"
     inkscape:window-width="1301"
     inkscape:window-height="933"
     inkscape:window-x="1576"
     inkscape:window-y="425"
     inkscape:window-maximized="0" />
  <metadata
     id="metadata3763">
    <rdf:RDF>
      <cc:Work
         rdf:about="">
        <dc:format>image/svg+xml</dc:format>
        <dc:type
           rdf:resource="http://purl.org/dc/dcmitype/StillImage" />
        <dc:title></dc:title>
      </cc:Work>
    </rdf:RDF>
  </metadata>
  <g
     inkscape:label="Layer 1"
     inkscape:groupmode="layer"
     id="layer1">
    <g
       transform="matrix(2.947835,0,0,2.947835,2.7970229,2.5215104)"
       id="SvgjsG1009"
       style="display:block;fill:#000000">
      <g
         style="fill:#000000"
         id="g3738">
        <path
           inkscape:connector-curvature="0"
           d="m 56.072,26.527 c 0,-0.795 -0.625,-1.628 -1.389,-1.85 L 13.319,12.686 C 12.554,12.465 12.447,11.889 13.08,11.407 l 3.665,-2.79 c 0.633,-0.481 1.777,-0.694 2.54,-0.472 l 41.29,11.991 c 0.764,0.222 1.389,1.055 1.389,1.85 V 86.99 c 0,0 -0.492,0.427 -1.092,0.95 l -3.707,3.219 c -0.6,0.523 -1.092,0.299 -1.092,-0.497 V 26.527 Z"
           style="fill:#000000"
           id="path3732" />
        <path
           inkscape:connector-curvature="0"
           d="M 67.969,14.562 17.283,-0.147 c -0.568,-0.158 -0.568,-0.158 -0.568,-0.158 -0.592,0.257 -1.593,0.861 -2.226,1.343 L 0.66,11.565 C 0,12.062 0,12.197 0,12.197 c 0,0.795 0,2.098 0,2.894 v 68.306 c 0,0.796 0.626,1.628 1.391,1.85 L 51.066,99.64 c 0.764,0.222 1.391,-0.248 1.391,-1.044 V 29.244 c 0,-0.796 -0.627,-1.628 -1.391,-1.849 L 47.829,26.457 V 49.932 L 40.432,39.369 34.215,45.716 V 22.509 L 5.413,14.159 C 4.649,13.938 4.542,13.363 5.175,12.881 L 16.004,4.637 c 0.633,-0.482 1.777,-0.694 2.54,-0.473 L 64.191,17.42 c 0.764,0.222 1.389,1.055 1.389,1.85 v 69.37 c 0,0.795 0.65,1.446 1.447,1.446 h 0.854 c 0.797,0 1.447,-0.651 1.447,-1.446 V 16.393 c 0,-0.852 -0.557,-1.597 -1.359,-1.831 z"
           style="fill:#000000"
           id="path3734" />
        <polygon
           points="37.109,23.195 37.109,38.58 40.801,34.809 44.937,40.712 44.937,25.467 "
           style="fill:#000000"
           id="polygon3736" />
      </g>
    </g>
  </g>
</svg>
